<?xml version="1.0" encoding="utf-8"?>
<!-- Generator: Adobe Illustrator 27.0.0, SVG Export Plug-In . SVG Version: 6.00 Build 0)  -->
<svg version="1.1" id="Layer_1" xmlns="http://www.w3.org/2000/svg" xmlns:xlink="http://www.w3.org/1999/xlink" x="0px" y="0px"
	 viewBox="0 0 87.46 86.47" style="enable-background:new 0 0 87.46 86.47;" xml:space="preserve">
<style type="text/css">
	.st0{fill-rule:evenodd;clip-rule:evenodd;fill:#D76313;}
	.st1{fill:#FFFFFF;}
	.st2{fill-rule:evenodd;clip-rule:evenodd;fill:#FFFFFF;}
</style>
<rect x="25.52" y="49.71" class="st0" width="11.99" height="13.26"/>
<rect x="52.62" y="41.53" class="st1" width="9.7" height="0.55"/>
<rect x="37.16" y="41.53" class="st1" width="6.6" height="0.55"/>
<rect x="16.31" y="41.53" class="st1" width="6.93" height="0.55"/>
<rect x="22.15" y="65.24" class="st1" width="0.55" height="5.51"/>
<rect x="22.15" y="28.43" class="st1" width="0.55" height="33.98"/>
<polygon class="st1" points="52.62,29.1 67.67,44.15 67.28,44.54 52.62,29.88 "/>
<polygon class="st1" points="36.73,13.21 43.76,20.24 43.76,21.02 36.34,13.6 "/>
<rect x="56.42" y="65.24" class="st1" width="0.55" height="5.08"/>
<polygon class="st1" points="56.97,21 56.97,49.33 56.42,49.01 56.42,21 "/>
<rect x="10.82" y="66.71" class="st1" width="49.32" height="0.55"/>
<rect x="62.95" y="65.24" class="st1" width="0.55" height="1.47"/>
<rect x="62.95" y="13.89" class="st1" width="0.55" height="48.52"/>
<polygon class="st1" points="41.67,29.56 41.67,24.01 42.22,24.01 42.22,29.24 "/>
<polygon class="st1" points="41.67,62.41 41.67,32.82 42.22,32.5 42.22,62.41 "/>
<rect x="41.67" y="65.24" class="st1" width="0.55" height="4.55"/>
<polygon class="st0" points="61.84,54.76 56.69,51.79 56.69,62.97 61.84,62.97 "/>
<rect x="25.11" y="68.64" class="st1" width="49.32" height="0.55"/>
<polygon class="st2" points="30.79,35.82 31.34,35.5 31.34,20.33 30.79,20.33 "/>
<rect x="44.32" y="18.68" class="st0" width="7.75" height="22.98"/>
<path class="st1" d="M47.33,58.07V47.59l-5.39,3.11v7.37H47.33z M36.61,62.97h18.36V50.79l-5.92-3.42v11.55v0.86h-0.86h-7.11h-0.86
	v-0.86V50.2v-0.5l0.43-0.25l6.68-3.86v-16.7l-16.27,9.42v3.48h4.69h0.86v0.86V62.97z M31.07,62.97h3.82V43.53h-3.82V62.97z
	 M25.52,62.97h3.82V43.53h-3.82V62.97z M14.96,62.97h8.84v-20.3V41.8h0.86h4.69v-3.98v-0.49l0.43-0.25l17.99-10.41l1.29-0.75v1.49
	V45.4l7.2,4.16l0.43,0.25v0.49v12.67h8.84v1.72H14.96V62.97z"/>
</svg>
