<?xml version="1.0" encoding="utf-8"?>
<!-- Generator: Adobe Illustrator 27.0.0, SVG Export Plug-In . SVG Version: 6.00 Build 0)  -->
<svg version="1.1" id="Layer_1" xmlns="http://www.w3.org/2000/svg" xmlns:xlink="http://www.w3.org/1999/xlink" x="0px" y="0px"
	 viewBox="0 0 21.62 21.62" style="enable-background:new 0 0 21.62 21.62;" xml:space="preserve">
<path d="M15.62,7.52c0.03,0,0.04-0.01,0.06-0.01c0.6,0,1.21-0.01,1.81,0.01c0.84,0.02,1.55,0.64,1.7,1.46
	c0.02,0.12,0.03,0.24,0.03,0.36c0,1.98,0,3.96,0,5.93c0,0.59-0.23,1.08-0.69,1.45c-0.32,0.26-0.7,0.38-1.11,0.39
	c-0.56,0-1.13,0-1.69,0c-0.09,0-0.11,0.02-0.11,0.11c0,0.72,0,1.43,0,2.15c0,0.04,0,0.08,0,0.14c-0.1-0.07-0.18-0.13-0.27-0.19
	c-0.94-0.71-1.89-1.42-2.83-2.13c-0.07-0.05-0.14-0.08-0.23-0.07c-1.07,0-2.14,0-3.21,0c-0.6,0-1.1-0.23-1.48-0.69
	c-0.03-0.04-0.06-0.08-0.09-0.13c0.3-0.23,0.6-0.46,0.9-0.68c0.37-0.28,0.74-0.56,1.12-0.83c0.04-0.03,0.11-0.05,0.16-0.05
	c0.98-0.01,1.95-0.01,2.93-0.01c1.47,0,2.74-1.07,2.95-2.53c0.06-0.39,0.04-0.78,0.04-1.17c0.01-1.13,0-2.26,0-3.39
	C15.62,7.59,15.62,7.56,15.62,7.52z"/>
<path d="M6.01,15.91c0-0.81,0-1.6,0-2.4c-0.05,0-0.1,0-0.14,0c-0.53,0-1.06,0-1.6,0c-0.9,0-1.6-0.55-1.81-1.42
	c-0.03-0.12-0.04-0.25-0.04-0.37c0-2,0-3.99,0-5.99c0-1.01,0.81-1.81,1.82-1.81c2.79,0,5.58,0,8.36,0c0.91,0,1.67,0.66,1.8,1.56
	c0.01,0.08,0.02,0.17,0.02,0.25c0,1.98,0,3.96,0,5.93c0,0.91-0.58,1.63-1.46,1.82c-0.11,0.02-0.22,0.03-0.33,0.03
	c-1.11,0-2.21,0-3.32,0c-0.05,0-0.12,0.02-0.16,0.05c-1.02,0.76-2.04,1.52-3.06,2.29C6.07,15.87,6.06,15.88,6.01,15.91z M7.22,13.51
	c0.04-0.03,0.05-0.04,0.07-0.05c0.48-0.36,0.96-0.72,1.44-1.08c0.05-0.04,0.13-0.07,0.2-0.07c1.22,0,2.44,0,3.66,0
	c0.38,0,0.63-0.25,0.63-0.63c0-1.97,0-3.94,0-5.91c0-0.41-0.24-0.65-0.65-0.65c-2.77,0-5.53,0-8.3,0c-0.4,0-0.65,0.24-0.65,0.65
	c0,1.96,0,3.93,0,5.89c0,0.41,0.24,0.65,0.65,0.65c0.94,0,1.87,0,2.81,0c0.04,0,0.08,0,0.13,0C7.22,12.71,7.22,13.1,7.22,13.51z"/>
</svg>
