<?xml version="1.0" encoding="utf-8"?>
<!-- Generator: Adobe Illustrator 27.0.0, SVG Export Plug-In . SVG Version: 6.00 Build 0)  -->
<svg version="1.1" id="Layer_1" xmlns="http://www.w3.org/2000/svg" xmlns:xlink="http://www.w3.org/1999/xlink" x="0px" y="0px"
	 viewBox="0 0 243.42 234.11" style="enable-background:new 0 0 243.42 234.11;" xml:space="preserve">
<g id="w1pRGZ_00000064324480763077040020000017238826615359805836_" fill="#d76413" fill-opacity="0.3">
	<g>
		<path d="M113.26,106.33c0,11.99,0.01,23.98,0,35.97c-0.04,28.61-23.31,52.55-51.78,53.28c-14.94,0.38-15.2,0.13-15.19-15.12
			c0-1.83-0.15-3.7,0.14-5.48c0.6-3.7,2.63-5.93,6.66-6.04c3.96-0.1,8,0.01,11.84-0.78c14.42-2.95,23.76-16.47,21.82-31.09
			c-0.73-5.51-5.04-9.3-11.06-9.4c-7.62-0.12-15.24,0.02-22.85-0.05c-11.39-0.1-19.74-8.47-19.78-19.86
			C33,94.1,33,80.44,33.05,66.79c0.04-11.45,8.34-19.78,19.75-19.81c13.58-0.05,27.16-0.05,40.74,0
			c11.34,0.04,19.67,8.44,19.71,19.89C113.3,80.02,113.26,93.18,113.26,106.33z"/>
		<path d="M207.73,106.09c0,11.99,0.01,23.98,0,35.97c-0.03,28.95-23.26,52.84-52.04,53.52c-14.61,0.35-14.93,0.02-14.93-14.89
			c0-1.33-0.04-2.67,0.01-4c0.24-5.56,2.43-7.9,8.03-7.69c9.7,0.37,18.4-1.64,25.25-9.11c6.03-6.57,7.98-14.44,7.09-23.09
			c-0.54-5.29-5.03-9.03-10.75-9.14c-7.62-0.15-15.24,0-22.85-0.06c-11.7-0.08-19.99-8.4-20.03-20.13
			c-0.04-13.66-0.06-27.31,0.01-40.97c0.05-11.13,8.41-19.5,19.5-19.55c13.75-0.06,27.49-0.06,41.24,0
			c11.03,0.05,19.4,8.49,19.45,19.64C207.78,79.78,207.73,92.93,207.73,106.09z"/>
	</g>
</g>
</svg>
