<?xml version="1.0" encoding="utf-8"?>
<!-- Generator: Adobe Illustrator 27.0.0, SVG Export Plug-In . SVG Version: 6.00 Build 0)  -->
<svg version="1.1" id="Layer_1" xmlns="http://www.w3.org/2000/svg" xmlns:xlink="http://www.w3.org/1999/xlink" x="0px" y="0px"
	 viewBox="0 0 21.62 21.62" style="enable-background:new 0 0 21.62 21.62;" xml:space="preserve">
<path d="M1.69,14.77c1.87-1.8,3.73-3.6,5.6-5.4c0.37,0.3,0.74,0.59,1.1,0.88c0.31,0.24,0.61,0.49,0.92,0.73
	c0.18,0.14,0.34,0.14,0.51,0c0.67-0.54,1.34-1.07,2.02-1.62c1.87,1.8,3.73,3.6,5.6,5.4C17.29,14.84,1.85,14.84,1.69,14.77z"/>
<path d="M9.57,10.32c-2.61-2.1-5.22-4.19-7.82-6.29c0-0.01,0.01-0.02,0.01-0.03c5.21,0,10.42,0,15.63,0c0,0.01,0.01,0.02,0.01,0.03
	C14.79,6.13,12.18,8.22,9.57,10.32z"/>
<path d="M17.93,14.29c-1.85-1.78-3.69-3.56-5.55-5.35c1.85-1.49,3.7-2.97,5.57-4.48c0.01,0.12,0.03,0.21,0.03,0.3
	c0,1.21,0,2.42,0,3.63c0,1.87,0,3.75,0,5.62c0,0.09-0.01,0.17-0.02,0.26C17.96,14.28,17.95,14.28,17.93,14.29z"/>
<path d="M1.2,4.47C3.05,5.96,4.9,7.44,6.75,8.93c-1.86,1.79-3.71,3.58-5.56,5.37C1.12,14.1,1.13,4.63,1.2,4.47z"/>
<path d="M18.49,6.47v8.83c0,0.13-0.11,0.24-0.24,0.24H5.01c-0.13,0-0.24,0.11-0.24,0.24v1.51c0,0.13,0.11,0.24,0.24,0.24h14.98
	c0.27,0,0.49-0.22,0.49-0.49V6.47c0-0.13-0.11-0.24-0.24-0.24h-1.51C18.6,6.24,18.49,6.34,18.49,6.47z"/>
</svg>
