<?xml version="1.0" encoding="utf-8"?>
<!-- Generator: Adobe Illustrator 27.0.0, SVG Export Plug-In . SVG Version: 6.00 Build 0)  -->
<svg version="1.1" id="Layer_1" xmlns="http://www.w3.org/2000/svg" xmlns:xlink="http://www.w3.org/1999/xlink" x="0px" y="0px"
	 viewBox="0 0 32 32" style="enable-background:new 0 0 32 32;" xml:space="preserve">
<style type="text/css">
	.st0{fill-rule:evenodd;clip-rule:evenodd;fill:#D76313;}
	.st1{fill:#253046;}
	.st2{fill-rule:evenodd;clip-rule:evenodd;fill:#253046;}
</style>
<g>
	<rect x="8.58" y="19.35" class="st0" width="5.2" height="5.75"/>
	<rect x="20.34" y="15.8" class="st1" width="4.21" height="0.24"/>
	<rect x="13.63" y="15.8" class="st1" width="2.86" height="0.24"/>
	<rect x="4.59" y="15.8" class="st1" width="3.01" height="0.24"/>
	<rect x="7.12" y="26.09" class="st1" width="0.24" height="2.39"/>
	<rect x="7.12" y="10.12" class="st1" width="0.24" height="14.74"/>
	<polygon class="st1" points="20.34,10.41 26.86,16.94 26.69,17.11 20.34,10.75 	"/>
	<polygon class="st1" points="13.44,3.52 16.49,6.57 16.49,6.91 13.27,3.69 	"/>
	<rect x="21.98" y="26.09" class="st1" width="0.24" height="2.2"/>
	<polygon class="st1" points="22.22,6.9 22.22,19.19 21.98,19.05 21.98,6.9 	"/>
	<rect x="2.21" y="26.73" class="st1" width="21.39" height="0.24"/>
	<rect x="24.82" y="26.09" class="st1" width="0.24" height="0.64"/>
	<rect x="24.82" y="3.82" class="st1" width="0.24" height="21.04"/>
	<polygon class="st1" points="15.59,10.61 15.59,8.21 15.82,8.21 15.82,10.47 	"/>
	<polygon class="st1" points="15.59,24.86 15.59,12.03 15.82,11.89 15.82,24.86 	"/>
	<rect x="15.59" y="26.09" class="st1" width="0.24" height="1.97"/>
	<polygon class="st0" points="24.33,21.54 22.1,20.25 22.1,25.1 24.33,25.1 	"/>
	<rect x="8.4" y="27.56" class="st1" width="21.39" height="0.24"/>
	<polygon class="st2" points="10.87,13.33 11.11,13.19 11.11,6.61 10.87,6.61 	"/>
	<rect x="16.74" y="5.89" class="st0" width="3.36" height="9.97"/>
	<path class="st1" d="M18.04,22.98v-4.55l-2.34,1.35v3.2H18.04z M13.39,25.1h7.96v-5.28l-2.57-1.48v5.01v0.37h-0.37h-3.08h-0.37
		v-0.37v-3.78v-0.22l0.19-0.11l2.9-1.67v-7.24l-7.06,4.09v1.51h2.03h0.37v0.37V25.1z M10.99,25.1h1.66v-8.43h-1.66V25.1z M8.58,25.1
		h1.66v-8.43H8.58V25.1z M4,25.1h3.83v-8.8v-0.38h0.37h2.03V14.2v-0.21l0.19-0.11l7.8-4.52l0.56-0.33v0.65v7.8l3.12,1.8l0.19,0.11
		v0.21v5.5h3.83v0.75H4V25.1z"/>
</g>
</svg>
